<svg xmlns="http://www.w3.org/2000/svg" width="1280" height="720" viewBox="0 0 1280 720">
  <defs>
    <linearGradient id="titleGradient" x1="0" y1="0" x2="1" y2="1">
      <stop offset="0%" stop-color="#1A365D" />
      <stop offset="100%" stop-color="#3182CE" />
    </linearGradient>
    <linearGradient id="scrimBottom" x1="0" y1="0" x2="0" y2="1">
      <stop offset="0%" stop-color="#FFFFFF" stop-opacity="0" />
      <stop offset="100%" stop-color="#1A365D" stop-opacity="0.08" />
    </linearGradient>
    <radialGradient id="bgDecor" cx="80%" cy="20%" r="55%">
      <stop offset="0%" stop-color="#3182CE" stop-opacity="0.14" />
      <stop offset="100%" stop-color="#3182CE" stop-opacity="0" />
    </radialGradient>
  </defs>

  <g id="background">
    <rect x="0" y="0" width="1280" height="720" fill="#FFFFFF" />
    <rect x="0" y="0" width="1280" height="720" fill="url(#bgDecor)" />
    <rect x="0" y="0" width="1280" height="720" fill="url(#scrimBottom)" />
    <line x1="0" y1="84" x2="1280" y2="84" stroke="#E2E8F0" stroke-width="1" />
    <line x1="820" y1="0" x2="820" y2="720" stroke="#E2E8F0" stroke-width="1" />
    <line x1="60" y1="640" x2="1220" y2="640" stroke="#E2E8F0" stroke-width="1" />
    <line x1="870" y1="130" x2="1180" y2="130" stroke="#3182CE" stroke-width="2" stroke-opacity="0.22" />
    <line x1="870" y1="206" x2="1180" y2="206" stroke="#3182CE" stroke-width="2" stroke-opacity="0.16" />
    <line x1="870" y1="282" x2="1180" y2="282" stroke="#3182CE" stroke-width="2" stroke-opacity="0.16" />
    <line x1="870" y1="358" x2="1180" y2="358" stroke="#3182CE" stroke-width="2" stroke-opacity="0.16" />
    <line x1="870" y1="434" x2="1180" y2="434" stroke="#3182CE" stroke-width="2" stroke-opacity="0.16" />
    <line x1="870" y1="510" x2="1180" y2="510" stroke="#3182CE" stroke-width="2" stroke-opacity="0.16" />
    <line x1="870" y1="586" x2="1180" y2="586" stroke="#3182CE" stroke-width="2" stroke-opacity="0.16" />
  </g>

  <g id="chrome">
    <text x="60" y="54" fill="#3182CE" font-family="Arial, Microsoft YaHei, PingFang SC, sans-serif" font-size="14" font-weight="700" letter-spacing="1.2">GRIDBRIEF</text>
    <line x1="60" y1="98" x2="460" y2="98" stroke="#3182CE" stroke-width="3" />
    <text x="60" y="676" fill="#A0AEC0" font-family="Arial, Microsoft YaHei, PingFang SC, sans-serif" font-size="11">企业 AI 营销工作台 · product-launch</text>
    <text x="1220" y="676" text-anchor="end" fill="#A0AEC0" font-family="Arial, Microsoft YaHei, PingFang SC, sans-serif" font-size="11">01</text>
  </g>

  <g id="content">
    <text x="60" y="196" fill="url(#titleGradient)" font-family="Georgia, Microsoft YaHei, serif" font-size="64" font-weight="700">企业AI营销工作台</text>

    <text fill="#1A202C" font-size="22" font-family="Arial, Microsoft YaHei, PingFang SC, sans-serif" x="64" y="268">用一个统一工作台打通数据整合、AI分析、自动化执行与效果度量，</text><text fill="#1A202C" font-size="22" font-family="Arial, Microsoft YaHei, PingFang SC, sans-serif" x="64" y="302">把营销从多系统协同改为可度量的增长运营。</text><path fill="#F5F7FA" stroke="#E2E8F0" d="M70,352 H486 A10,10 0 0 1 496,362 V394 A10,10 0 0 1 486,404 H70 A10,10 0 0 1 60,394 V362 A10,10 0 0 1 70,352 Z" />
    <circle cx="86" cy="378" r="4" fill="#3182CE" />
    <text x="102" y="385" fill="#1A365D" font-family="Arial, Microsoft YaHei, PingFang SC, sans-serif" font-size="18">客户经营数据集中可见</text>

    <path fill="#F5F7FA" stroke="#E2E8F0" d="M70,420 H486 A10,10 0 0 1 496,430 V462 A10,10 0 0 1 486,472 H70 A10,10 0 0 1 60,462 V430 A10,10 0 0 1 70,420 Z" />
    <circle cx="86" cy="446" r="4" fill="#3182CE" />
    <text x="102" y="453" fill="#1A365D" font-family="Arial, Microsoft YaHei, PingFang SC, sans-serif" font-size="18">策略生成与执行闭环联动</text>

    <path fill="#F5F7FA" stroke="#E2E8F0" d="M70,488 H486 A10,10 0 0 1 496,498 V530 A10,10 0 0 1 486,540 H70 A10,10 0 0 1 60,530 V498 A10,10 0 0 1 70,488 Z" />
    <circle cx="86" cy="514" r="4" fill="#3182CE" />
    <text x="102" y="521" fill="#1A365D" font-family="Arial, Microsoft YaHei, PingFang SC, sans-serif" font-size="18">先控风险，再放大投放效率</text>

    <path fill="#EBF4FB" stroke="#3182CE" stroke-width="1.5" d="M882,112 H1152 A8,8 0 0 1 1160,120 V140 A8,8 0 0 1 1152,148 H882 A8,8 0 0 1 874,140 V120 A8,8 0 0 1 882,112 Z" />
    <text x="1017" y="136" text-anchor="middle" fill="#1A365D" font-family="Consolas, Courier New, monospace" font-size="16">统一营销工作台</text>

    <path fill="#FFFFFF" stroke="#1A365D" stroke-width="2" d="M914,188 H1120 A10,10 0 0 1 1130,198 V234 A10,10 0 0 1 1120,244 H914 A10,10 0 0 1 904,234 V198 A10,10 0 0 1 914,188 Z" />
    <text x="1017" y="221" text-anchor="middle" fill="#1A202C" font-family="Arial, Microsoft YaHei, PingFang SC, sans-serif" font-size="22" font-weight="700">数据整合</text>

    <path fill="#FFFFFF" stroke="#1A365D" stroke-width="2" d="M914,264 H1120 A10,10 0 0 1 1130,274 V310 A10,10 0 0 1 1120,320 H914 A10,10 0 0 1 904,310 V274 A10,10 0 0 1 914,264 Z" />
    <text x="1017" y="297" text-anchor="middle" fill="#1A202C" font-family="Arial, Microsoft YaHei, PingFang SC, sans-serif" font-size="22" font-weight="700">AI分析</text>

    <path fill="#FFFFFF" stroke="#1A365D" stroke-width="2" d="M914,340 H1120 A10,10 0 0 1 1130,350 V386 A10,10 0 0 1 1120,396 H914 A10,10 0 0 1 904,386 V350 A10,10 0 0 1 914,340 Z" />
    <text x="1017" y="373" text-anchor="middle" fill="#1A202C" font-family="Arial, Microsoft YaHei, PingFang SC, sans-serif" font-size="22" font-weight="700">自动化执行</text>

    <path fill="#FFFFFF" stroke="#1A365D" stroke-width="2" d="M914,416 H1120 A10,10 0 0 1 1130,426 V462 A10,10 0 0 1 1120,472 H914 A10,10 0 0 1 904,462 V426 A10,10 0 0 1 914,416 Z" />
    <text x="1017" y="449" text-anchor="middle" fill="#1A202C" font-family="Arial, Microsoft YaHei, PingFang SC, sans-serif" font-size="22" font-weight="700">效果度量</text>

    <path fill="#1A365D" d="M884,548 H1150 A10,10 0 0 1 1160,558 V584 A10,10 0 0 1 1150,594 H884 A10,10 0 0 1 874,584 V558 A10,10 0 0 1 884,548 Z" />
    <text x="1017" y="577" text-anchor="middle" fill="#FFFFFF" font-family="Arial, Microsoft YaHei, PingFang SC, sans-serif" font-size="18">从分散协同走向增长运营</text>

    <line x1="1017" y1="148" x2="1017" y2="188" stroke="#3182CE" stroke-width="2" />
    <line x1="1017" y1="244" x2="1017" y2="264" stroke="#3182CE" stroke-width="2" />
    <line x1="1017" y1="320" x2="1017" y2="340" stroke="#3182CE" stroke-width="2" />
    <line x1="1017" y1="396" x2="1017" y2="416" stroke="#3182CE" stroke-width="2" />
    <line x1="1017" y1="472" x2="1017" y2="548" stroke="#3182CE" stroke-width="2" />

    <circle cx="1188" cy="216" r="10" fill="#3182CE" fill-opacity="0.12" stroke="#3182CE" />
    <circle cx="1188" cy="292" r="10" fill="#3182CE" fill-opacity="0.12" stroke="#3182CE" />
    <circle cx="1188" cy="368" r="10" fill="#3182CE" fill-opacity="0.12" stroke="#3182CE" />
    <circle cx="1188" cy="444" r="10" fill="#3182CE" fill-opacity="0.12" stroke="#3182CE" />

    <line x1="1130" y1="216" x2="1178" y2="216" stroke="#3182CE" stroke-width="2" />
    <line x1="1130" y1="292" x2="1178" y2="292" stroke="#3182CE" stroke-width="2" />
    <line x1="1130" y1="368" x2="1178" y2="368" stroke="#3182CE" stroke-width="2" />
    <line x1="1130" y1="444" x2="1178" y2="444" stroke="#3182CE" stroke-width="2" />

    <circle cx="872" cy="216" r="5" fill="#1A365D" />
    <circle cx="872" cy="292" r="5" fill="#1A365D" />
    <circle cx="872" cy="368" r="5" fill="#1A365D" />
    <circle cx="872" cy="444" r="5" fill="#1A365D" />

    <path d="M 872 216 C 846 216 838 234 838 254 C 838 274 846 292 872 292" fill="none" stroke="#63B3ED" stroke-width="2" />
    <path d="M 872 292 C 846 292 838 310 838 330 C 838 350 846 368 872 368" fill="none" stroke="#63B3ED" stroke-width="2" />
    <path d="M 872 368 C 846 368 838 386 838 406 C 838 426 846 444 872 444" fill="none" stroke="#63B3ED" stroke-width="2" />
  </g>

  <g id="annotations">
    <text x="872" y="166" fill="#4A5568" font-family="Arial, Microsoft YaHei, PingFang SC, sans-serif" font-size="14">单一入口承接营销数据、洞察、动作与结果</text>
    <text x="884" y="619" fill="#4A5568" font-family="Arial, Microsoft YaHei, PingFang SC, sans-serif" font-size="14">客户、渠道、内容、预算在同一界面被统一编排</text>
    <text x="60" y="618" fill="#4A5568" font-family="Arial, Microsoft YaHei, PingFang SC, sans-serif" font-size="14">面向企业管理层的 SaaS 方案，强调统一视图、可执行策略与持续度量。</text>
  </g>
</svg>