<svg xmlns="http://www.w3.org/2000/svg" width="1280" height="720" viewBox="0 0 1280 720"><g id="background"><rect width="1280" height="720" fill="#111111" /><path fill="#1A1A18" fill-opacity="0.72" d="M100,72 H1180 A26,26 0 0 1 1206,98 V612 A26,26 0 0 1 1180,638 H100 A26,26 0 0 1 74,612 V98 A26,26 0 0 1 100,72 Z" /><path fill="none" stroke="#282826" stroke-width="2" d="M100,72 H1180 A26,26 0 0 1 1206,98 V612 A26,26 0 0 1 1180,638 H100 A26,26 0 0 1 74,612 V98 A26,26 0 0 1 100,72 Z" /><circle cx="1084" cy="124" r="64" fill="#E85D26" fill-opacity="0.14" /><rect x="138" y="104" width="216" height="10" fill="#E85D26" fill-opacity="0.85" /></g><g id="chrome"><text x="1060" y="90" font-family="Arial, &quot;Microsoft YaHei&quot;, sans-serif" font-size="14" font-weight="700" fill="#F0ECE5" opacity="0.7">BROADSIDE</text></g><g id="content"><text x="136" y="112" font-family="Arial, &quot;Microsoft YaHei&quot;, sans-serif" font-size="16" font-weight="700" fill="#E85D26">核心宣言</text><path fill="#1A1A18" stroke="#282826" stroke-width="2" d="M164,154 H1116 A28,28 0 0 1 1144,182 V556 A28,28 0 0 1 1116,584 H164 A28,28 0 0 1 136,556 V182 A28,28 0 0 1 164,154 Z" /><path fill="#111111" stroke="#282826" stroke-width="2" d="M810,154 H1116 A28,28 0 0 1 1144,182 V556 A28,28 0 0 1 1116,584 H810 A28,28 0 0 1 782,556 V182 A28,28 0 0 1 810,154 Z" /><path fill="#E85D26" d="M188,328 H592 A8,8 0 0 1 600,336 V394 A8,8 0 0 1 592,402 H188 A8,8 0 0 1 180,394 V336 A8,8 0 0 1 188,328 Z" /><text font-family="Georgia, &quot;Microsoft YaHei&quot;, serif" font-weight="800" font-size="68" fill="#F0ECE5" x="180" y="246">主航道已开</text><text font-family="Georgia, &quot;Microsoft YaHei&quot;, serif" font-weight="800" font-size="68" fill="#F0ECE5" x="180" y="316">，全球能源</text><text font-family="Georgia, &quot;Microsoft YaHei&quot;, serif" font-weight="800" font-size="68" fill="#F0ECE5" x="180" y="386">链仍未脱险</text><text font-family="Arial, &quot;Microsoft YaHei&quot;, sans-serif" font-weight="600" font-size="28" fill="#F0ECE5" x="180" y="470">6月21日通行船只约67艘，高于</text><text font-family="Arial, &quot;Microsoft YaHei&quot;, sans-serif" font-weight="600" font-size="28" fill="#F0ECE5" x="180" y="510">前一日约55艘，但…</text><text font-family="Arial Black, Arial, &quot;Microsoft YaHei&quot;, sans-serif" font-weight="900" font-size="34" fill="#111111" x="208" y="376">一度约162艘油轮滞</text><text font-family="Arial Black, Arial, &quot;Microsoft YaHei&quot;, sans-serif" font-weight="900" font-size="34" fill="#111111" x="208" y="414">留…</text><path fill="none" stroke="#F0ECE5" stroke-width="2" d="M192,498 H688 A12,12 0 0 1 700,510 V558 A12,12 0 0 1 688,570 H192 A12,12 0 0 1 180,558 V510 A12,12 0 0 1 192,498 Z" /><text x="208" y="534" font-family="Arial, &quot;Microsoft YaHei&quot;, sans-serif" font-size="18" font-weight="800" fill="#E85D26">一句话判断</text><text x="350" y="534" font-family="Arial, &quot;Microsoft YaHei&quot;, sans-serif" font-size="24" font-weight="700" fill="#F0ECE5">部分油轮日租金接近28…</text><text x="826" y="212" font-family="Arial, &quot;Microsoft YaHei&quot;, sans-serif" font-size="18" font-weight="800" fill="#E85D26">支撑列</text><line x1="826" y1="226" x2="1106" y2="226" stroke="#282826" stroke-width="2" /><text font-family="Arial Black, Arial, &quot;Microsoft YaHei&quot;, sans-serif" font-weight="900" font-size="54" fill="#F0ECE5" x="826" y="304">一度约1</text><text font-family="Arial Black, Arial, &quot;Microsoft YaHei&quot;, sans-serif" font-weight="900" font-size="54" fill="#F0ECE5" x="826" y="362">62艘油</text><text x="826" y="404" font-family="Arial, &quot;Microsoft YaHei&quot;, sans-serif" font-size="22" font-weight="600" fill="#F0ECE5">部分油轮日租金接近28…</text><path fill="#E85D26" fill-opacity="0.14" stroke="#E85D26" stroke-width="2" d="M838,448 H1074 A12,12 0 0 1 1086,460 V528 A12,12 0 0 1 1074,540 H838 A12,12 0 0 1 826,528 V460 A12,12 0 0 1 838,448 Z" /><text x="850" y="484" font-family="Arial, &quot;Microsoft YaHei&quot;, sans-serif" font-size="18" font-weight="800" fill="#E85D26">风险未退</text><text font-family="Arial, &quot;Microsoft YaHei&quot;, sans-serif" font-weight="700" font-size="22" fill="#F0ECE5" x="850" y="520">单一安全事件仍可能迅</text><text font-family="Arial, &quot;Microsoft YaHei&quot;, sans-serif" font-weight="700" font-size="22" fill="#F0ECE5" x="850" y="548">速…</text></g><g id="annotations"><text x="1120" y="674" font-family="Arial, &quot;Microsoft YaHei&quot;, sans-serif" font-size="12" fill="#F0ECE5" opacity="0.55">3/4</text></g></svg>