<svg xmlns="http://www.w3.org/2000/svg" width="1280" height="720" viewBox="0 0 1280 720"><g id="background"><rect width="1280" height="720" fill="#111111" /><path fill="#1A1A18" fill-opacity="0.72" d="M100,72 H1180 A26,26 0 0 1 1206,98 V612 A26,26 0 0 1 1180,638 H100 A26,26 0 0 1 74,612 V98 A26,26 0 0 1 100,72 Z" /><path fill="none" stroke="#282826" stroke-width="2" d="M100,72 H1180 A26,26 0 0 1 1206,98 V612 A26,26 0 0 1 1180,638 H100 A26,26 0 0 1 74,612 V98 A26,26 0 0 1 100,72 Z" /><circle cx="1084" cy="124" r="64" fill="#E85D26" fill-opacity="0.14" /><rect x="138" y="104" width="216" height="10" fill="#E85D26" fill-opacity="0.85" /></g><g id="chrome"><text x="1060" y="90" font-family="Arial, &quot;Microsoft YaHei&quot;, sans-serif" font-size="14" font-weight="700" fill="#F0ECE5" opacity="0.7">BROADSIDE</text></g><g id="content"><text x="136" y="112" font-family="Arial, &quot;Microsoft YaHei&quot;, sans-serif" font-size="16" font-weight="700" fill="#E85D26">核心宣言</text><path fill="#1A1A18" stroke="#282826" stroke-width="2" d="M164,154 H1116 A28,28 0 0 1 1144,182 V556 A28,28 0 0 1 1116,584 H164 A28,28 0 0 1 136,556 V182 A28,28 0 0 1 164,154 Z" /><path fill="#111111" stroke="#282826" stroke-width="2" d="M810,154 H1116 A28,28 0 0 1 1144,182 V556 A28,28 0 0 1 1116,584 H810 A28,28 0 0 1 782,556 V182 A28,28 0 0 1 810,154 Z" /><path fill="#E85D26" d="M188,404 H592 A8,8 0 0 1 600,412 V462 A8,8 0 0 1 592,470 H188 A8,8 0 0 1 180,462 V412 A8,8 0 0 1 188,404 Z" /><text font-weight="800" font-family="Georgia, &quot;Microsoft YaHei&quot;, serif" fill="#F0ECE5" font-size="62" x="180" y="236">恢复的是航</text><text font-weight="800" font-family="Georgia, &quot;Microsoft YaHei&quot;, serif" fill="#F0ECE5" font-size="62" x="180" y="300">道，不是确</text><text font-weight="800" font-family="Georgia, &quot;Microsoft YaHei&quot;, serif" fill="#F0ECE5" font-size="62" x="180" y="364">定性</text><text font-weight="600" font-family="Arial, &quot;Microsoft YaHei&quot;, sans-serif" fill="#F0ECE5" font-size="28" x="180" y="512">只要再出现摩擦、扣船或临时封控，</text><text font-weight="600" font-family="Arial, &quot;Microsoft YaHei&quot;, sans-serif" fill="#F0ECE5" font-size="28" x="180" y="552">保费跳升与延误就会…</text><text x="208" y="448" font-family="Arial Black, Arial, &quot;Microsoft YaHei&quot;, sans-serif" font-size="34" font-weight="900" fill="#111111">全球约20%海运</text><path fill="none" stroke="#F0ECE5" stroke-width="2" d="M192,522 H688 A12,12 0 0 1 700,534 V582 A12,12 0 0 1 688,594 H192 A12,12 0 0 1 180,582 V534 A12,12 0 0 1 192,522 Z" /><text x="208" y="558" font-family="Arial, &quot;Microsoft YaHei&quot;, sans-serif" font-size="18" font-weight="800" fill="#E85D26">一句话判断</text><text x="350" y="558" font-family="Arial, &quot;Microsoft YaHei&quot;, sans-serif" font-size="24" font-weight="700" fill="#F0ECE5">油轮与LNG船风险溢价…</text><text x="826" y="212" font-family="Arial, &quot;Microsoft YaHei&quot;, sans-serif" font-size="18" font-weight="800" fill="#E85D26">支撑列</text><line x1="826" y1="226" x2="1106" y2="226" stroke="#282826" stroke-width="2" /><text font-weight="900" font-family="Arial Black, Arial, &quot;Microsoft YaHei&quot;, sans-serif" fill="#F0ECE5" font-size="54" x="826" y="304">全球约2</text><text font-weight="900" font-family="Arial Black, Arial, &quot;Microsoft YaHei&quot;, sans-serif" fill="#F0ECE5" font-size="54" x="826" y="362">0%海运</text><text x="826" y="404" font-family="Arial, &quot;Microsoft YaHei&quot;, sans-serif" font-size="22" font-weight="600" fill="#F0ECE5">油轮与LNG船风险溢价…</text><path fill="#E85D26" fill-opacity="0.14" stroke="#E85D26" stroke-width="2" d="M838,448 H1074 A12,12 0 0 1 1086,460 V528 A12,12 0 0 1 1074,540 H838 A12,12 0 0 1 826,528 V460 A12,12 0 0 1 838,448 Z" /><text x="850" y="484" font-family="Arial, &quot;Microsoft YaHei&quot;, sans-serif" font-size="18" font-weight="800" fill="#E85D26">风险未退</text><text font-weight="700" font-family="Arial, &quot;Microsoft YaHei&quot;, sans-serif" fill="#F0ECE5" font-size="22" x="850" y="520">供给恢复慢于通航恢复</text><text font-weight="700" font-family="Arial, &quot;Microsoft YaHei&quot;, sans-serif" fill="#F0ECE5" font-size="22" x="850" y="548">，…</text></g><g id="annotations"><text x="1120" y="674" font-family="Arial, &quot;Microsoft YaHei&quot;, sans-serif" font-size="12" fill="#F0ECE5" opacity="0.55">3/4</text></g></svg>