<svg xmlns="http://www.w3.org/2000/svg" width="1280" height="720" viewBox="0 0 1280 720"><g id="background"><rect width="1280" height="720" fill="#111111" /><path fill="#1A1A18" fill-opacity="0.72" d="M100,72 H1180 A26,26 0 0 1 1206,98 V612 A26,26 0 0 1 1180,638 H100 A26,26 0 0 1 74,612 V98 A26,26 0 0 1 100,72 Z" /><path fill="none" stroke="#282826" stroke-width="2" d="M100,72 H1180 A26,26 0 0 1 1206,98 V612 A26,26 0 0 1 1180,638 H100 A26,26 0 0 1 74,612 V98 A26,26 0 0 1 100,72 Z" /><circle cx="1084" cy="124" r="64" fill="#E85D26" fill-opacity="0.14" /><rect x="138" y="104" width="216" height="10" fill="#E85D26" fill-opacity="0.85" /></g><g id="chrome"><text x="1060" y="90" font-family="Arial, &quot;Microsoft YaHei&quot;, sans-serif" font-size="14" font-weight="700" fill="#F0ECE5" opacity="0.7">BROADSIDE</text></g><g id="content"><text x="136" y="112" font-family="Arial, &quot;Microsoft YaHei&quot;, sans-serif" font-size="16" font-weight="700" fill="#E85D26">下一张告示</text><text x="136" y="168" font-family="Arial, &quot;Microsoft YaHei&quot;, sans-serif" font-size="34" font-weight="800" fill="#F0ECE5">现在就做</text><line x1="164" y1="368" x2="1110" y2="368" stroke="#E85D26" stroke-width="4" /><g id="timeline-stop-1"><circle cx="180" cy="368" r="12" fill="#E85D26" /><path fill="#1A1A18" stroke="#282826" stroke-width="2" d="M138,408 H272 A18,18 0 0 1 290,426 V484 A18,18 0 0 1 272,502 H138 A18,18 0 0 1 120,484 V426 A18,18 0 0 1 138,408 Z" /><text fill="#F0ECE5" font-size="17" font-weight="600" font-family="Arial, &quot;Microsoft YaHei&quot;, sans-serif" x="140" y="446">优先锁定船期、战争险</text><text fill="#F0ECE5" font-size="17" font-weight="600" font-family="Arial, &quot;Microsoft YaHei&quot;, sans-serif" x="140" y="468">与…</text></g><g id="timeline-stop-2"><circle cx="410" cy="368" r="12" fill="#E85D26" /><path fill="#1A1A18" stroke="#282826" stroke-width="2" d="M368,408 H502 A18,18 0 0 1 520,426 V484 A18,18 0 0 1 502,502 H368 A18,18 0 0 1 350,484 V426 A18,18 0 0 1 368,408 Z" /><text fill="#F0ECE5" font-size="17" font-weight="600" font-family="Arial, &quot;Microsoft YaHei&quot;, sans-serif" x="370" y="446">调整采购节奏与安全库</text><text fill="#F0ECE5" font-size="17" font-weight="600" font-family="Arial, &quot;Microsoft YaHei&quot;, sans-serif" x="370" y="468">存…</text></g><g id="timeline-stop-3"><circle cx="640" cy="368" r="12" fill="#E85D26" /><path fill="#1A1A18" stroke="#282826" stroke-width="2" d="M598,408 H732 A18,18 0 0 1 750,426 V484 A18,18 0 0 1 732,502 H598 A18,18 0 0 1 580,484 V426 A18,18 0 0 1 598,408 Z" /><text fill="#F0ECE5" font-size="17" font-weight="600" font-family="Arial, &quot;Microsoft YaHei&quot;, sans-serif" x="600" y="446">建立绕行航线、替代货</text><text fill="#F0ECE5" font-size="17" font-weight="600" font-family="Arial, &quot;Microsoft YaHei&quot;, sans-serif" x="600" y="468">源…</text></g><text x="136" y="586" font-family="Arial, &quot;Microsoft YaHei&quot;, sans-serif" font-size="18" font-weight="400" fill="#F0ECE5">把霍尔木兹风险当作常态情景管理，而不是等待市场…</text></g><g id="annotations"><text x="1120" y="674" font-family="Arial, &quot;Microsoft YaHei&quot;, sans-serif" font-size="12" fill="#F0ECE5" opacity="0.55">4/4</text></g></svg>