<svg xmlns="http://www.w3.org/2000/svg" width="1280" height="720" viewBox="0 0 1280 720"><g id="background"><rect width="1280" height="720" fill="#111111" /><path fill="#1A1A18" fill-opacity="0.72" d="M100,72 H1180 A26,26 0 0 1 1206,98 V612 A26,26 0 0 1 1180,638 H100 A26,26 0 0 1 74,612 V98 A26,26 0 0 1 100,72 Z" /><path fill="none" stroke="#282826" stroke-width="2" d="M100,72 H1180 A26,26 0 0 1 1206,98 V612 A26,26 0 0 1 1180,638 H100 A26,26 0 0 1 74,612 V98 A26,26 0 0 1 100,72 Z" /><circle cx="1084" cy="124" r="64" fill="#E85D26" fill-opacity="0.14" /><rect x="138" y="104" width="216" height="10" fill="#E85D26" fill-opacity="0.85" /></g><g id="chrome"><text x="1060" y="90" font-family="Arial, &quot;Microsoft YaHei&quot;, sans-serif" font-size="14" font-weight="700" fill="#F0ECE5" opacity="0.7">BROADSIDE</text></g><g id="content"><text x="136" y="112" font-family="Arial, &quot;Microsoft YaHei&quot;, sans-serif" font-size="16" font-weight="700" fill="#E85D26">核心宣言</text><path fill="#1A1A18" stroke="#282826" stroke-width="2" d="M164,154 H1116 A28,28 0 0 1 1144,182 V504 A28,28 0 0 1 1116,532 H164 A28,28 0 0 1 136,504 V182 A28,28 0 0 1 164,154 Z" /><text x="180" y="232" font-family="Georgia, &quot;Microsoft YaHei&quot;, serif" font-size="34" font-weight="800" fill="#F0ECE5">恢复只是表象</text><text x="180" y="320" font-family="Arial, &quot;Microsoft YaHei&quot;, sans-serif" font-size="24" font-weight="500" fill="#F0ECE5">6月21日约67艘船通过海峡，高于前一日约55艘；…</text><g id="bullet-390"><circle cx="184" cy="384" r="4" fill="#F0ECE5" /><text x="200" y="390" font-family="Arial, &quot;Microsoft YaHei&quot;, sans-serif" font-size="18" font-weight="400" fill="#F0ECE5">船在增加，风险没退</text></g><g id="bullet-426"><circle cx="184" cy="420" r="4" fill="#F0ECE5" /><text x="200" y="426" font-family="Arial, &quot;Microsoft YaHei&quot;, sans-serif" font-size="18" font-weight="400" fill="#F0ECE5">租金近28万美元/天，…</text></g><g id="bullet-462"><circle cx="184" cy="456" r="4" fill="#F0ECE5" /><text x="200" y="462" font-family="Arial, &quot;Microsoft YaHei&quot;, sans-serif" font-size="18" font-weight="400" fill="#F0ECE5">全面恢复油气流动仍可能…</text></g></g><g id="annotations"><text x="1120" y="674" font-family="Arial, &quot;Microsoft YaHei&quot;, sans-serif" font-size="12" fill="#F0ECE5" opacity="0.55">3/4</text></g></svg>